<?xml version="1.0" standalone="no"?>
<!DOCTYPE svg PUBLIC "-//W3C//DTD SVG 20010904//EN"
 "http://www.w3.org/TR/2001/REC-SVG-20010904/DTD/svg10.dtd">
<svg version="1.0" xmlns="http://www.w3.org/2000/svg"
 width="385.000000pt" height="385.000000pt" viewBox="0 0 385.000000 385.000000"
 preserveAspectRatio="xMidYMid meet">

<g transform="translate(0.000000,385.000000) scale(0.100000,-0.100000)"
fill="#000000" stroke="none">
<path d="M1635 3835 c-356 -57 -704 -217 -957 -439 -346 -303 -546 -643 -644
-1089 -23 -105 -28 -152 -32 -337 -3 -187 -1 -231 17 -341 73 -431 249 -771
555 -1074 378 -374 882 -571 1411 -552 231 9 385 38 603 116 435 155 813 484
1034 899 142 264 213 529 225 837 21 561 -190 1080 -600 1472 -255 244 -598
422 -952 494 -142 29 -517 37 -660 14z m283 -33 c-4 -9 -207 -360 -311 -537
-141 -240 -196 -333 -292 -500 -54 -93 -149 -255 -210 -360 -384 -654 -383
-653 -515 -880 -48 -82 -110 -190 -139 -240 -29 -49 -71 -121 -93 -160 -21
-38 -48 -81 -58 -95 l-19 -25 -55 115 c-243 506 -247 1077 -13 1591 265 581
814 990 1455 1083 108 15 255 20 250 8z m244 -8 c353 -48 674 -188 958 -415
307 -245 538 -618 636 -1024 81 -339 71 -632 -33 -975 -36 -120 -132 -340
-148 -340 -2 0 -19 26 -38 57 -76 127 -272 461 -402 683 -76 129 -168 287
-205 350 -37 63 -145 248 -240 410 -95 162 -224 383 -287 490 -63 107 -180
308 -261 445 -80 138 -156 267 -169 287 -12 21 -23 40 -23 43 0 10 100 5 212
-11z m-181 -137 c19 -34 74 -127 121 -207 450 -764 538 -916 538 -927 0 -11
-135 -13 -706 -13 -668 0 -706 1 -700 18 8 19 322 563 421 727 23 39 89 151
145 250 100 174 126 215 139 215 3 0 22 -28 42 -63z m-281 -1204 c0 -5 -35
-26 -78 -47 -58 -30 -99 -62 -168 -130 -78 -78 -98 -105 -137 -186 -25 -52
-49 -112 -53 -133 -17 -96 -24 -29 -24 227 l0 276 230 0 c127 0 230 -3 230 -7z
m924 -9 c9 -23 7 -546 -3 -580 -6 -23 -10 -15 -28 59 -12 47 -41 125 -65 174
-59 120 -186 251 -300 309 -43 21 -78 42 -78 47 0 4 105 7 234 7 208 0 235 -2
240 -16z m127 -101 c69 -118 62 -107 375 -638 119 -203 232 -395 249 -425 18
-30 57 -99 88 -152 32 -54 57 -100 57 -103 0 -3 -189 -5 -420 -5 l-420 0 0
715 c0 393 2 715 4 715 2 0 32 -48 67 -107z m-1561 -607 c0 -649 -1 -704 -17
-710 -9 -4 -193 -4 -410 0 -427 8 -414 6 -374 62 10 15 60 99 111 187 51 88
149 257 218 375 69 118 142 244 162 280 20 36 57 99 82 140 25 41 80 136 123
210 77 133 94 160 101 160 2 0 4 -317 4 -704z m875 678 c131 -31 276 -125 351
-226 154 -207 191 -458 104 -690 -52 -139 -178 -283 -306 -350 -191 -100 -355
-105 -549 -18 -260 117 -423 432 -375 727 48 303 269 530 555 572 69 10 134 5
220 -15z m564 -1092 c0 -215 -3 -284 -12 -288 -7 -2 -127 -3 -267 -2 l-255 3
108 53 c93 45 120 65 190 135 69 69 90 99 134 187 28 58 60 139 69 180 16 67
19 71 26 45 4 -16 7 -157 7 -313z m-1350 178 c66 -197 225 -364 414 -435 26
-10 50 -22 53 -26 3 -5 -110 -9 -250 -9 l-256 0 1 288 c0 158 4 278 8 267 5
-11 18 -49 30 -85z m1769 -526 c363 -5 482 -9 482 -18 0 -20 -121 -190 -200
-281 -249 -288 -657 -520 -1045 -595 -258 -49 -462 -49 -720 0 -493 95 -946
400 -1221 821 -25 38 -42 74 -39 80 7 10 1687 6 2743 -7z"/>
</g>
</svg>
